<svg width="624" height="704" viewBox="0 0 624 704" fill="none" xmlns="http://www.w3.org/2000/svg">
<path d="M189.123 700.701C121.702 688.26 54.2815 656.269 5.39572 613.613C-10.3589 598.506 11.4195 576.068 31.8079 556.518L45.709 541.855C46.6358 540.967 52.4279 535.413 60.7686 534.746C63.3172 534.524 71.6579 534.302 76.2916 538.523L89.0344 547.409C116.142 565.627 138.847 582.066 171.515 592.286C289.443 628.498 415.712 584.732 480.352 485.426C563.759 357.461 514.642 189.285 374.935 122.192C344.816 107.974 318.404 100.42 287.358 97.5319C289.906 97.5319 253.995 96.8655 254.922 43.3245L255.385 27.551C255.848 11.9997 269.286 -0.21918 285.504 0.0029819C365.204 0.891629 412.005 21.997 467.146 58.4315C495.18 77.093 544.529 124.636 561.906 150.406C591.33 193.506 613.109 246.158 620.986 293.701C627.01 329.247 623.535 404.559 614.73 436.995C586.696 538.745 513.252 624.277 414.322 670.487C364.046 694.036 326.513 702.478 263.957 703.811C229.668 704.478 204.878 703.367 189.123 700.701Z" fill="#23272A"/>
<path d="M261.872 521.416C359.503 521.416 438.649 445.524 438.649 351.907C438.649 258.289 359.503 182.398 261.872 182.398C164.241 182.398 85.0959 258.289 85.0959 351.907C85.0959 445.524 164.241 521.416 261.872 521.416Z" fill="#23272A"/>
</svg>
